<svg
  width="400"
  height="130"
  viewBox="0 0 400 130"
  fill="none"
  xmlns="http://www.w3.org/2000/svg"
>
  <style>
    .header {
      font: 600 14px 'Segoe UI', Ubuntu, Sans-Serif;
      fill: #0366d6;
      animation: fadeInAnimation 0.8s ease-in-out forwards;
    }
    .header .owner { font-weight: 400!important; }
    .description { font: 400 13px 'Segoe UI', Ubuntu, Sans-Serif; fill: #333 }
    .gray { font: 400 12px 'Segoe UI', Ubuntu, Sans-Serif; fill: #333 }
    .icon { fill: #586069 }
    .badge { font: 600 11px 'Segoe UI', Ubuntu, Sans-Serif; }
    .badge rect { opacity: 0.2 }
  </style>

  <rect
    data-testid="card-bg"
    x="0.5"
    y="0.5"
    rx="4.5"
    height="99%"
    stroke="#E4E2E2"
    width="399"
    fill="#fffefe"
    stroke-opacity="1"
  />

  <g
    data-testid="card-title"
    transform="translate(25, 35)"
  >
    <g
      transform="translate(0, 0)"
    >
      <svg
        class="icon"
        x="0"
        y="-13"
        viewBox="0 0 16 16"
        version="1.1"
        width="16"
        height="16"
      >

        <path
          fill-rule="evenodd"
          d="M6 .75A.75.75 0 016.75 0h2.5a.75.75 0 010 1.5h-2.5A.75.75 0 016 .75zm5 0a.75.75 0 01.75-.75h1.5a.75.75 0 01.75.75v1.5a.75.75 0 01-1.5 0V1.5h-.75A.75.75 0 0111 .75zM4.992.662a.75.75 0 01-.636.848c-.436.063-.783.41-.846.846a.75.75 0 01-1.485-.212A2.501 2.501 0 014.144.025a.75.75 0 01.848.637zM2.75 4a.75.75 0 01.75.75v1.5a.75.75 0 01-1.5 0v-1.5A.75.75 0 012.75 4zm10.5 0a.75.75 0 01.75.75v1.5a.75.75 0 01-1.5 0v-1.5a.75.75 0 01.75-.75zM2.75 8a.75.75 0 01.75.75v.268A1.72 1.72 0 013.75 9h.5a.75.75 0 010 1.5h-.5a.25.25 0 00-.25.25v.75c0 .28.114.532.3.714a.75.75 0 01-1.05 1.072A2.495 2.495 0 012 11.5V8.75A.75.75 0 012.75 8zm10.5 0a.75.75 0 01.75.75v4.5a.75.75 0 01-.75.75h-2.5a.75.75 0 010-1.5h1.75v-2h-.75a.75.75 0 010-1.5h.75v-.25a.75.75 0 01.75-.75zM6 9.75A.75.75 0 016.75 9h2.5a.75.75 0 010 1.5h-2.5A.75.75 0 016 9.75zm-1 2.5v3.25a.25.25 0 00.4.2l1.45-1.087a.25.25 0 01.3 0L8.6 15.7a.25.25 0 00.4-.2v-3.25a.25.25 0 00-.25-.25h-3.5a.25.25 0 00-.25.25z"
        />
      </svg>
    </g>

    <g
      transform="translate(25, 0)"
    >
      <text
        x="0"
        y="0"
        class="header"
        data-testid="header"
      >
        <tspan class="owner">paveloom-d</tspan><tspan>/binder-julia</tspan>
      </text>
    </g>
  </g>

  <g
    data-testid="main-card-body"
    transform="translate(0, 50)"
  >
    <text
      class="description"
      x="25"
      y="-5"
    >
      <tspan
        dy="1.2em"
        x="25"
      >
        Basically, `paveloom/binder-base` + Julia
      </tspan>

      <tspan
        dy="1.2em"
        x="25"
      >
        
      </tspan>

    </text>

    <g
      transform="translate(0, 55)"
    >
      <g
        data-testid="primary-lang"
        transform="translate(30, 0)"
      >
        <circle
          data-testid="lang-color"
          cx="0"
          cy="-5"
          r="6"
          fill="#89E051"
        />

        <text
          data-testid="lang-name"
          class="gray"
          x="15"
        >
          Shell
        </text>
      </g>
    </g>
  </g>
</svg>

